<svg xmlns="http://www.w3.org/2000/svg" viewBox="0 0 160 160" role="img" aria-labelledby="title">
  <title id="title">AmulyaThanda avatar</title>
  <defs>
    <linearGradient id="bg" x1="22" y1="12" x2="136" y2="146" gradientUnits="userSpaceOnUse">
      <stop stop-color="#e0f2fe" />
      <stop offset="1" stop-color="#ccfbf1" />
    </linearGradient>
    <linearGradient id="top" x1="34" y1="145" x2="126" y2="92" gradientUnits="userSpaceOnUse">
      <stop stop-color="#0f766e" />
      <stop offset="1" stop-color="#2563eb" />
    </linearGradient>
  </defs>
  <rect width="160" height="160" rx="80" fill="url(#bg)" />
  <path d="M33 149c6-31 24-48 47-48s41 17 47 48H33Z" fill="url(#top)" />
  <path d="M52 69c0-25 12-42 29-42s29 17 29 42c0 24-13 41-29 41S52 93 52 69Z" fill="#9b542e" />
  <path d="M47 67c1-30 16-47 37-47 18 0 32 13 34 34-7-5-17-9-30-11-11 10-25 15-40 15-1 3-1 6-1 9Z" fill="#1f2937" />
  <path d="M61 65c5-4 11-4 16 0M85 65c5-4 11-4 16 0" stroke="#111827" stroke-width="5" stroke-linecap="round" />
  <path d="M74 84c4 4 11 4 15 0" stroke="#fff7ed" stroke-width="4" stroke-linecap="round" />
  <path d="M63 101c10 9 25 9 36 0 1 9-7 20-18 20s-19-11-18-20Z" fill="#eef2ff" opacity=".28" />
</svg>
